HIERARCHY
ROOT Hips
{
  OFFSET 5.84602e-005 68.8428 3.50346
  CHANNELS 6 Xposition Yposition Zposition Zrotation Xrotation Yrotation
  JOINT Spine
  {
    OFFSET 0 8.597 -4.6522
    CHANNELS 3 Zrotation Xrotation Yrotation
    JOINT Spine1
    {
      OFFSET 0 7.8454 0.4098
      CHANNELS 3 Zrotation Xrotation Yrotation
      JOINT Spine2
      {
        OFFSET 0 9.7078 -2.1609
        CHANNELS 3 Zrotation Xrotation Yrotation
        JOINT Neck
        {
          OFFSET 0 21.8761 -0.4549
          CHANNELS 3 Zrotation Xrotation Yrotation
          JOINT Head
          {
            OFFSET 0 12.3537 3.3602
            CHANNELS 3 Zrotation Xrotation Yrotation
            End Site
            {
              OFFSET 0.0001 18.9506 0.5657
            }
          }
        }
        JOINT LeftShoulder
        {
          OFFSET 2.2086 21.1115 7.2329
          CHANNELS 3 Zrotation Xrotation Yrotation
          JOINT LeftArm
          {
            OFFSET 13.1193 3.0282 -4.8998
            CHANNELS 3 Zrotation Xrotation Yrotation
            JOINT LeftForeArm
            {
              OFFSET 27.4081 -0.0973053 -0.2375
              CHANNELS 3 Zrotation Xrotation Yrotation
              JOINT LeftHand
              {
                OFFSET 22.8641 0.0662994 -0.1369
                CHANNELS 3 Zrotation Xrotation Yrotation
                JOINT LeftHandIndex1
                {
                  OFFSET 8.8614 0.775009 2.4612
                  CHANNELS 3 Zrotation Xrotation Yrotation
                  JOINT LeftHandIndex2
                  {
                    OFFSET 3.3146 -0.808304 0.5841
                    CHANNELS 3 Zrotation Xrotation Yrotation
                    JOINT LeftHandIndex3
                    {
                      OFFSET 2.2628 -0.552002 0.3989
                      CHANNELS 3 Zrotation Xrotation Yrotation
                      End Site
                      {
                        OFFSET 1.6102 -0.4807 0.2612
                      }
                    }
                  }
                }
                JOINT LeftHandMiddle1
                {
                  OFFSET 8.9937 0.895004 0.2143
                  CHANNELS 3 Zrotation Xrotation Yrotation
                  JOINT LeftHandMiddle2
                  {
                    OFFSET 4.0984 0.0113983 -0.0242
                    CHANNELS 3 Zrotation Xrotation Yrotation
                    JOINT LeftHandMiddle3
                    {
                      OFFSET 2.2716 0.00689697 -0.0138001
                      CHANNELS 3 Zrotation Xrotation Yrotation
                      End Site
                      {
                        OFFSET 2.0404 -0.1441 0.0027
                      }
                    }
                  }
                }
                JOINT LeftHandRing1
                {
                  OFFSET 8.5234 0.597198 -2.0164
                  CHANNELS 3 Zrotation Xrotation Yrotation
                  JOINT LeftHandRing2
                  {
                    OFFSET 3.7188 -0.188293 -0.2328
                    CHANNELS 3 Zrotation Xrotation Yrotation
                    JOINT LeftHandRing3
                    {
                      OFFSET 2.1191 -0.106598 -0.1332
                      CHANNELS 3 Zrotation Xrotation Yrotation
                      End Site
                      {
                        OFFSET 1.8737 -0.2304 -0.0886
                      }
                    }
                  }
                }
                JOINT LeftHandPinky1
                {
                  OFFSET 7.9094 -0.601089 -3.4825
                  CHANNELS 3 Zrotation Xrotation Yrotation
                  JOINT LeftHandPinky2
                  {
                    OFFSET 2.2874 -0.477005 -0.6314
                    CHANNELS 3 Zrotation Xrotation Yrotation
                    JOINT LeftHandPinky3
                    {
                      OFFSET 1.6774 -0.349396 -0.4633
                      CHANNELS 3 Zrotation Xrotation Yrotation
                      End Site
                      {
                        OFFSET 1.4888 -0.4091 -0.3416
                      }
                    }
                  }
                }
                JOINT LeftHandThumb1
                {
                  OFFSET 1.833 -1.3875 1.3896
                  CHANNELS 3 Zrotation Xrotation Yrotation
                  JOINT LeftHandThumb2
                  {
                    OFFSET 3.4129 -1.121 2.5732
                    CHANNELS 3 Zrotation Xrotation Yrotation
                    JOINT LeftHandThumb3
                    {
                      OFFSET 2.2474 -0.804199 1.6192
                      CHANNELS 3 Zrotation Xrotation Yrotation
                      End Site
                      {
                        OFFSET 1.6527 -0.5689 1.1317
                      }
                    }
                  }
                }
              }
            }
          }
        }
        JOINT RightShoulder
        {
          OFFSET -2.2086 21.1115 7.2329
          CHANNELS 3 Zrotation Xrotation Yrotation
          JOINT RightArm
          {
            OFFSET -13.1216 3.0287 -4.9007
            CHANNELS 3 Zrotation Xrotation Yrotation
            JOINT RightForeArm
            {
              OFFSET -27.4081 -0.0973053 -0.2375
              CHANNELS 3 Zrotation Xrotation Yrotation
              JOINT RightHand
              {
                OFFSET -22.8641 0.0664063 -0.1369
                CHANNELS 3 Zrotation Xrotation Yrotation
                JOINT RightHandIndex1
                {
                  OFFSET -8.8614 0.774994 2.4612
                  CHANNELS 3 Zrotation Xrotation Yrotation
                  JOINT RightHandIndex2
                  {
                    OFFSET -3.3146 -0.808304 0.5841
                    CHANNELS 3 Zrotation Xrotation Yrotation
                    JOINT RightHandIndex3
                    {
                      OFFSET -2.2628 -0.552002 0.3989
                      CHANNELS 3 Zrotation Xrotation Yrotation
                      End Site
                      {
                        OFFSET -1.6102 -0.4807 0.2612
                      }
                    }
                  }
                }
                JOINT RightHandMiddle1
                {
                  OFFSET -8.9937 0.894989 0.2143
                  CHANNELS 3 Zrotation Xrotation Yrotation
                  JOINT RightHandMiddle2
                  {
                    OFFSET -4.0984 0.0113983 -0.0242
                    CHANNELS 3 Zrotation Xrotation Yrotation
                    JOINT RightHandMiddle3
                    {
                      OFFSET -2.2716 0.00691223 -0.0138001
                      CHANNELS 3 Zrotation Xrotation Yrotation
                      End Site
                      {
                        OFFSET -2.0404 -0.1441 0.0027
                      }
                    }
                  }
                }
                JOINT RightHandRing1
                {
                  OFFSET -8.5234 0.597198 -2.0164
                  CHANNELS 3 Zrotation Xrotation Yrotation
                  JOINT RightHandRing2
                  {
                    OFFSET -3.7188 -0.188309 -0.2328
                    CHANNELS 3 Zrotation Xrotation Yrotation
                    JOINT RightHandRing3
                    {
                      OFFSET -2.1191 -0.106598 -0.1332
                      CHANNELS 3 Zrotation Xrotation Yrotation
                      End Site
                      {
                        OFFSET -1.8737 -0.2304 -0.0886
                      }
                    }
                  }
                }
                JOINT RightHandPinky1
                {
                  OFFSET -7.9094 -0.601105 -3.4825
                  CHANNELS 3 Zrotation Xrotation Yrotation
                  JOINT RightHandPinky2
                  {
                    OFFSET -2.2874 -0.477005 -0.6314
                    CHANNELS 3 Zrotation Xrotation Yrotation
                    JOINT RightHandPinky3
                    {
                      OFFSET -1.6774 -0.349396 -0.4633
                      CHANNELS 3 Zrotation Xrotation Yrotation
                      End Site
                      {
                        OFFSET -1.4888 -0.4091 -0.3416
                      }
                    }
                  }
                }
                JOINT RightHandThumb1
                {
                  OFFSET -1.833 -1.38751 1.3896
                  CHANNELS 3 Zrotation Xrotation Yrotation
                  JOINT RightHandThumb2
                  {
                    OFFSET -3.41299 -1.12099 2.5732
                    CHANNELS 3 Zrotation Xrotation Yrotation
                    JOINT RightHandThumb3
                    {
                      OFFSET -2.24741 -0.804108 1.6192
                      CHANNELS 3 Zrotation Xrotation Yrotation
                      End Site
                      {
                        OFFSET -1.6527 -0.5689 1.1317
                      }
                    }
                  }
                }
              }
            }
          }
        }
      }
    }
  }
  JOINT RightUpLeg
  {
    OFFSET -9.1966 3.8861 -0.7581
    CHANNELS 3 Zrotation Xrotation Yrotation
    JOINT RightLeg
    {
      OFFSET -0.7359 -41.0265 0
      CHANNELS 3 Zrotation Xrotation Yrotation
      JOINT RightFoot
      {
        OFFSET 0 -40.2855 0
        CHANNELS 3 Zrotation Xrotation Yrotation
        JOINT RightToeBase
        {
          OFFSET 0 -5.6122 11.7359
          CHANNELS 3 Zrotation Xrotation Yrotation
          End Site
          {
            OFFSET 0 0 7.8731
          }
        }
      }
    }
  }
  JOINT LeftUpLeg
  {
    OFFSET 9.1965 3.8864 -0.7581
    CHANNELS 3 Zrotation Xrotation Yrotation
    JOINT LeftLeg
    {
      OFFSET 0.7359 -41.0268 0
      CHANNELS 3 Zrotation Xrotation Yrotation
      JOINT LeftFoot
      {
        OFFSET 0 -40.2855 0
        CHANNELS 3 Zrotation Xrotation Yrotation
        JOINT LeftToeBase
        {
          OFFSET 0 -5.6122 11.7359
          CHANNELS 3 Zrotation Xrotation Yrotation
          End Site
          {
            OFFSET 0 0 7.8731
          }
        }
      }
    }
  }
}
MOTION
Frames:	5
Frame Time:	0.0333333
-1.0802 3.89549 -48.846 179.994 88.9936 7.52443e-009 -0.034956 1.69086 -0.279261 -0.0617027 3.38187 -0.557853 -0.0617028 3.38185 -0.557853 7.15891e-006 43.9987 -1.73465e-005 5.10318e-007 -79.3071 6.15018e-007 -15.6015 -4.00421 21.7206 -0.0908903 1.98929 -78.3606 -18.6697 -6.17871 -54.685 -37.7927 -33.5168 -40.5765 3.57812e-015 0 7.95139e-016 7.5004e-007 5.07285e-007 -4.02257e-008 -7.73485e-007 3.04484e-007 -2.10643e-007 3.57812e-015 0 7.95139e-016 -0.0146009 -8.77924e-005 -1.20228e-006 5.96354e-016 0 -0 3.57812e-015 0 7.95139e-016 -0.0187661 -0.00117669 5.95606e-005 -1.5704e-014 -1.59028e-015 7.95139e-016 3.57812e-015 0 7.95139e-016 -0.0122138 -0.00323583 0.000673557 -7.7198e-007 3.04911e-007 -2.10672e-007 3.57812e-015 0 7.95139e-016 7.5004e-007 5.07285e-007 -4.02257e-008 -7.73485e-007 3.04484e-007 -2.10643e-007 15.5409 -4.25315 -21.7003 0.0514378 1.98608 78.1808 18.5626 -6.35562 54.3141 38.4043 -33.1471 40.7037 2.13009e-006 4.71753e-007 4.25912e-007 2.07309e-008 6.75075e-008 -2.01389e-007 7.55382e-015 4.77083e-015 1.59028e-015 2.13009e-006 4.71753e-007 4.25912e-007 0.0150165 -9.09574e-005 4.97973e-008 -6.16232e-015 1.59028e-015 -7.95139e-016 2.13009e-006 4.71753e-007 4.25912e-007 0.0190091 -0.00119205 -6.00609e-005 2.1326e-006 4.71667e-007 4.25804e-007 2.13009e-006 4.71753e-007 4.25912e-007 0.0122741 -0.00324962 -0.000675803 2.13172e-006 4.71382e-007 4.25712e-007 2.13009e-006 4.71753e-007 4.25912e-007 2.07309e-008 6.75075e-008 -2.01389e-007 7.55382e-015 4.77083e-015 1.59028e-015 -45.9518 -26.5782 -33.5193 -31.0826 68.2575 32.6459 -30.6603 42.9999 31.334 -9.77558e-008 -5.04259e-008 -6.90298e-010 45.9453 -26.5815 33.4841 31.001 68.2754 -32.585 30.6328 43.035 -31.3007 -1.10348e-032 1.98785e-016 3.18055e-015 
-1.0802 3.89549 -48.846 179.994 88.9936 7.52443e-009 -0.0342603 1.5742 -0.279142 -0.0608792 3.14845 -0.557658 -0.0608794 3.14848 -0.557658 1.19954e-005 43.9985 -8.87121e-006 -1.23358e-007 -77.1594 -1.26009e-007 -15.8191 -3.60611 21.4947 -0.0908969 1.98928 -78.3606 -18.5242 -6.37663 -54.0376 -38.1487 -33.2454 -40.7117 -3.29091e-006 7.8026e-007 -3.72226e-007 4.38257e-008 -8.74431e-007 4.76972e-008 -3.31119e-006 8.4292e-007 -1.69283e-007 -3.29091e-006 7.8026e-007 -3.72226e-007 -0.0146151 -8.89078e-005 -8.87442e-007 -3.31131e-006 8.42941e-007 -1.69173e-007 -3.29091e-006 7.8026e-007 -3.72226e-007 -0.0187153 -0.00117469 5.9396e-005 -3.31135e-006 8.4294e-007 -1.69111e-007 -3.29091e-006 7.8026e-007 -3.72226e-007 -0.0122893 -0.00325343 0.000679183 -3.31129e-006 8.42932e-007 -1.69093e-007 -3.29091e-006 7.8026e-007 -3.72226e-007 4.38257e-008 -8.74431e-007 4.76972e-008 -3.31119e-006 8.4292e-007 -1.69283e-007 15.7576 -3.86369 -21.4595 0.0514147 1.9861 78.1808 18.4194 -6.54829 53.6816 38.7461 -32.8749 40.7992 9.54166e-015 -1.59028e-015 -1.59028e-015 1.07344e-014 -1.59028e-015 -1.59028e-015 1.45113e-014 1.59028e-015 -7.95139e-016 9.54166e-015 -1.59028e-015 -1.59028e-015 0.0150025 -9.11972e-005 -6.34673e-008 -3.18055e-015 -1.59028e-015 -7.95139e-016 9.54166e-015 -1.59028e-015 -1.59028e-015 0.0190307 -0.00119248 -5.95883e-005 3.97569e-015 4.77083e-015 1.59028e-015 9.54166e-015 -1.59028e-015 -1.59028e-015 0.0122442 -0.00324111 -0.000674695 -5.56597e-015 -6.36111e-015 -7.95139e-016 9.54166e-015 -1.59028e-015 -1.59028e-015 1.07344e-014 -1.59028e-015 -1.59028e-015 1.45113e-014 1.59028e-015 -7.95139e-016 -45.9518 -26.5782 -33.5193 -31.0826 68.2575 32.6459 -30.6603 42.9999 31.334 -9.77558e-008 -5.04259e-008 -6.90298e-010 45.9453 -26.5815 33.4841 31.001 68.2754 -32.585 30.6328 43.035 -31.3007 -1.10348e-032 1.98785e-016 3.18055e-015 
-1.0802 3.89549 -48.846 179.994 88.9936 7.52443e-009 -0.0336333 1.46947 -0.279048 -0.060134 2.93909 -0.557507 -0.0601339 2.93908 -0.557507 6.99164e-006 43.9985 -9.12554e-006 3.50369e-007 -75.2226 2.09488e-007 -16.013 -3.24825 21.2935 -0.0908869 1.98929 -78.3606 -18.3917 -6.55246 -53.4561 -38.4663 -33.0014 -40.8307 -6.75868e-015 1.59028e-015 7.95139e-016 -6.75868e-015 0 7.95139e-016 -6.75868e-015 0 7.95139e-016 -6.75868e-015 1.59028e-015 7.95139e-016 -0.0146042 -8.88426e-005 -3.46139e-007 8.15017e-015 -3.18055e-015 3.18055e-015 -6.75868e-015 1.59028e-015 7.95139e-016 -0.0188029 -0.0011794 5.96153e-005 -3.37934e-015 -4.77083e-015 7.95139e-016 -6.75868e-015 1.59028e-015 7.95139e-016 -0.0122798 -0.00325254 0.000677814 4.17448e-015 -1.59028e-015 -7.95139e-016 -6.75868e-015 1.59028e-015 7.95139e-016 -6.75868e-015 0 7.95139e-016 -6.75868e-015 0 7.95139e-016 15.9505 -3.51358 -21.245 0.051429 1.98609 78.1808 18.2892 -6.71944 53.1134 39.0511 -32.6304 40.8827 3.97569e-015 3.18055e-015 -0 9.74045e-015 4.77083e-015 3.18055e-015 9.34288e-015 3.18055e-015 1.59028e-015 3.97569e-015 3.18055e-015 -0 0.0150198 -8.93026e-005 9.41127e-007 1.09518e-006 2.56174e-007 1.66469e-007 3.97569e-015 3.18055e-015 -0 0.0189527 -0.00118886 -5.99669e-005 -1.09469e-006 -2.56316e-007 -1.66457e-007 3.97569e-015 3.18055e-015 -0 0.0122476 -0.00324075 -0.0006736 6.36111e-015 1.59028e-015 1.59028e-015 3.97569e-015 3.18055e-015 -0 9.74045e-015 4.77083e-015 3.18055e-015 9.34288e-015 3.18055e-015 1.59028e-015 -45.9518 -26.5782 -33.5193 -31.0826 68.2575 32.6459 -30.6603 42.9999 31.334 -9.77558e-008 -5.04259e-008 -6.90298e-010 45.9453 -26.5815 33.4841 31.001 68.2754 -32.585 30.6328 43.035 -31.3007 -1.10348e-032 1.98785e-016 3.18055e-015 
-1.0802 3.89549 -48.846 179.994 88.9936 7.52443e-009 -0.0330039 1.36475 -0.278967 -0.059384 2.72963 -0.557385 -0.0593839 2.72961 -0.557385 1.45129e-005 43.9984 -2.23068e-005 -1.14982e-007 -73.2773 -2.55836e-007 -16.2056 -2.8896 21.0935 -0.0909008 1.98928 -78.3606 -18.2574 -6.72701 -52.8737 -38.7824 -32.7568 -40.9478 5.76476e-015 4.77083e-015 -7.95139e-016 8.94531e-015 0 -0 2.18663e-015 3.18055e-015 -7.95139e-016 5.76476e-015 4.77083e-015 -7.95139e-016 -0.0146183 -8.86444e-005 -6.30803e-007 1.98785e-016 1.59028e-015 -2.38542e-015 5.76476e-015 4.77083e-015 -7.95139e-016 -0.0187703 -0.00117748 5.88787e-005 -5.56597e-015 0 7.95139e-016 5.76476e-015 4.77083e-015 -7.95139e-016 -0.0122403 -0.00324193 0.00067422 -1.98785e-016 -1.59028e-015 -7.95139e-016 5.76476e-015 4.77083e-015 -7.95139e-016 8.94531e-015 0 -0 2.18663e-015 3.18055e-015 -7.95139e-016 16.142 -3.16263 -21.0317 0.0514346 1.98609 78.1808 18.1572 -6.88939 52.5444 39.3549 -32.3855 40.9644 -4.2385e-008 -1.34566e-007 4.0283e-007 3.26503e-006 7.50206e-008 -6.37504e-008 9.14409e-015 0 -2.38542e-015 -4.2385e-008 -1.34566e-007 4.0283e-007 0.014985 -9.14354e-005 -8.99488e-008 5.56597e-015 -1.59028e-015 7.95139e-016 -4.2385e-008 -1.34566e-007 4.0283e-007 0.0189872 -0.00119049 -5.94091e-005 -1.08971e-006 -2.47438e-007 -1.62373e-007 -4.2385e-008 -1.34566e-007 4.0283e-007 0.0122157 -0.00323313 -0.000672717 -1.47101e-014 -1.59028e-015 -1.59028e-015 -4.2385e-008 -1.34566e-007 4.0283e-007 3.26503e-006 7.50206e-008 -6.37504e-008 9.14409e-015 0 -2.38542e-015 -45.9518 -26.5782 -33.5193 -31.0826 68.2575 32.6459 -30.6603 42.9999 31.334 -9.77558e-008 -5.04259e-008 -6.90298e-010 45.9453 -26.5815 33.4841 31.001 68.2754 -32.585 30.6328 43.035 -31.3007 -1.10348e-032 1.98785e-016 3.18055e-015 
-1.0802 3.89549 -48.846 179.994 88.9936 7.52443e-009 -0.0323728 1.26 -0.278903 -0.05863 2.52009 -0.557296 -0.0586302 2.52014 -0.557296 2.71499e-005 43.9986 -3.34448e-005 -1.47094e-006 -71.3247 -1.4773e-006 -16.3969 -2.53028 20.8948 -0.0908894 1.9893 -78.3606 -18.1211 -6.90029 -52.2905 -39.0972 -32.5117 -41.0629 2.07182e-008 -6.24855e-008 -2.02951e-007 7.13426e-007 6.06699e-007 1.47639e-007 -7.37155e-007 2.05106e-007 -3.97581e-007 2.07182e-008 -6.24855e-008 -2.02951e-007 -0.0146251 -8.93218e-005 -3.29778e-007 -7.35347e-007 2.05168e-007 -3.97554e-007 2.07182e-008 -6.24855e-008 -2.02951e-007 -0.0187491 -0.00117429 5.90159e-005 -7.3484e-007 2.05317e-007 -3.97547e-007 2.07182e-008 -6.24855e-008 -2.02951e-007 -0.0123183 -0.003259 0.000677754 2.07127e-008 -6.24636e-008 -2.02959e-007 2.07182e-008 -6.24855e-008 -2.02951e-007 7.13426e-007 6.06699e-007 1.47639e-007 -7.37155e-007 2.05106e-007 -3.97581e-007 16.3323 -2.81097 -20.8196 0.0514372 1.98609 78.1808 18.0233 -7.0581 51.9747 39.6576 -32.1402 41.0444 6.36111e-015 3.18055e-015 7.95139e-016 1.31198e-014 0 -1.59028e-015 1.03368e-014 0 -1.59028e-015 6.36111e-015 3.18055e-015 7.95139e-016 0.0149837 -9.18491e-005 8.55147e-007 3.77691e-015 1.59028e-015 7.95139e-016 6.36111e-015 3.18055e-015 7.95139e-016 0.0189656 -0.00118865 -6.00866e-005 -4.57205e-015 -1.59028e-015 -7.95139e-016 6.36111e-015 3.18055e-015 7.95139e-016 0.0122472 -0.00324281 -0.000675021 4.57205e-015 0 1.59028e-015 6.36111e-015 3.18055e-015 7.95139e-016 1.31198e-014 0 -1.59028e-015 1.03368e-014 0 -1.59028e-015 -45.9518 -26.5782 -33.5193 -31.0826 68.2575 32.6459 -30.6603 42.9999 31.334 -9.77558e-008 -5.04259e-008 -6.90298e-010 45.9453 -26.5815 33.4841 31.001 68.2754 -32.585 30.6328 43.035 -31.3007 -1.10348e-032 1.98785e-016 3.18055e-015 
